<svg width="24.000000" height="24.000000" viewBox="0 0 24 24" fill="none" xmlns="http://www.w3.org/2000/svg" xmlns:xlink="http://www.w3.org/1999/xlink">
	<desc>
			Created with Pixso.
	</desc>
	<defs/>
	<rect id="icon" width="24.000000" height="24.000000" fill="#FFFFFF" fill-opacity="0"/>
	<path id="outline" d="M8.17 5.19C8.47 5.15 8.78 5.14 9.09 5.14C13.25 5.14 16.77 8.04 17.84 12.01C17.93 12 18.01 12 18.1 12C18.07 12 18.03 12 18 12L17.97 12L17.97 12L19.28 12L19.33 12L19.33 11.99C20.97 11.97 22.28 10.63 22.28 9C22.28 7.34 20.94 6 19.28 6C18.72 6 18.2 6.15 17.76 6.41C17.76 5.93 17.68 5.47 17.55 5.03C16.88 3.1 15.04 1.71 12.88 1.71C10.66 1.71 8.79 3.17 8.17 5.19ZM21.58 13.11C23.04 14.2 24 15.98 24 18C24 21.31 21.4 24 18.21 24C18.14 24 18.07 23.99 18 23.99L18 24L9.22 24L9.22 23.99C9.18 23.99 9.13 24 9.09 24C4.07 24 0 19.77 0 14.57C0 10.36 2.65 6.8 6.32 5.58C6.82 2.42 9.57 0 12.88 0C15.72 0 18.15 1.78 19.1 4.28C19.16 4.28 19.22 4.28 19.28 4.28C21.88 4.28 24 6.39 24 9C24 10.77 23.02 12.31 21.58 13.11ZM18 22.28L9.22 22.28L9.13 22.28L9.13 22.28L9.09 22.28C5.07 22.28 1.71 18.89 1.71 14.57C1.71 10.25 5.07 6.85 9.09 6.85C12.5 6.85 15.43 9.3 16.24 12.67L16.25 12.67C16.36 13.14 16.43 13.63 16.46 14.13C17 13.86 17.59 13.71 18.21 13.71C20.4 13.71 22.28 15.57 22.28 18C22.28 20.4 20.43 22.25 18.25 22.28L18.25 22.28L18 22.28Z" fill="#FFFFFF" fill-opacity="1.000000" fill-rule="evenodd"/>
</svg>
