<svg width="24.000000" height="24.000000" viewBox="0 0 24 24" fill="none" xmlns="http://www.w3.org/2000/svg" xmlns:xlink="http://www.w3.org/1999/xlink">
	<desc>
			Created with Pixso.
	</desc>
	<defs/>
	<rect id="icon" width="24.000000" height="24.000000" fill="#FFFFFF" fill-opacity="0"/>
	<path id="outline" d="M19 16.36C19 19.18 16.18 22 12 22C7.81 22 5 19.18 5 16.36C5 13.44 6.9 9.8 9.13 6.63C10.14 5.2 11.15 3.95 11.95 3.03C12.75 4.02 13.8 5.37 14.84 6.9C15.93 8.49 16.99 10.23 17.77 11.93C18.57 13.66 19 15.18 19 16.36ZM3 16.36C3 10.92 8.13 4.37 10.64 1.48C11.46 0.54 12 0 12 0C12 0 12.51 0.57 13.3 1.52C15.79 4.56 21 11.48 21 16.36C21 20.58 16.97 24 12 24C7.02 24 3 20.58 3 16.36ZM7.49 13L9.64 13C9.24 13.92 9 14.8 9 15.54C9 16.69 10.11 18 12 18L12 20C9.23 20 7 18 7 15.54C7 14.72 7.19 13.86 7.49 13Z" fill="#FFFFFF" fill-opacity="1.000000" fill-rule="evenodd"/>
	<path id="°" d="M17.72 2.04Q17.55 2.52 17.55 3.05Q17.55 3.66 17.77 4.19Q17.99 4.73 18.43 5.17Q18.89 5.62 19.44 5.84Q19.95 6.05 20.54 6.05Q21.13 6.05 21.64 5.84Q22.18 5.62 22.62 5.17Q23.04 4.74 23.25 4.23Q23.48 3.69 23.48 3.05Q23.48 2.47 23.29 1.96Q23.08 1.39 22.62 0.91Q22.15 0.41 21.58 0.19Q21.1 0 20.54 0Q19.96 0 19.45 0.2Q18.89 0.43 18.43 0.91Q17.93 1.43 17.72 2.04ZM21.22 4.4Q20.92 4.55 20.54 4.55Q20.17 4.55 19.87 4.4Q19.64 4.3 19.46 4.11Q19.26 3.91 19.15 3.67Q19.02 3.39 19.02 3.05Q19.02 2.74 19.12 2.47Q19.23 2.19 19.46 1.95Q19.67 1.73 19.93 1.61Q20.21 1.49 20.54 1.49Q20.88 1.49 21.17 1.62Q21.41 1.72 21.61 1.93Q21.75 2.07 21.85 2.25Q22.04 2.59 22.04 3.05Q22.04 3.49 21.85 3.83Q21.75 3.99 21.61 4.13Q21.43 4.3 21.22 4.4Z" fill="#FFFFFF" fill-opacity="1.000000" fill-rule="evenodd"/>
</svg>
