<svg width="16.000000" height="16.000000" viewBox="0 0 16 16" fill="none" xmlns="http://www.w3.org/2000/svg" xmlns:xlink="http://www.w3.org/1999/xlink">
	<defs/>
	<rect id="nav arrow" width="16.000000" height="16.000000" fill="#FFFFFF" fill-opacity="0"/>
	<path id="path" d="M7.44 1.59L1.47 13.89C1.21 14.42 1.78 14.97 2.31 14.7L7.71 11.84C7.8 11.79 7.9 11.76 8 11.76C8.1 11.76 8.19 11.79 8.28 11.84L13.68 14.7C14.21 14.97 14.78 14.42 14.52 13.89L8.55 1.59C8.49 1.49 8.42 1.4 8.32 1.34C8.22 1.28 8.11 1.25 8 1.25C7.88 1.25 7.77 1.28 7.67 1.34C7.57 1.4 7.5 1.49 7.44 1.59Z" fill="#000000" fill-opacity="0" fill-rule="nonzero"/>
	<path id="path" d="M1.47 13.89C1.21 14.42 1.78 14.97 2.31 14.7L7.71 11.84C7.8 11.79 7.9 11.76 8 11.76C8.1 11.76 8.19 11.79 8.28 11.84L13.68 14.7C14.21 14.97 14.78 14.42 14.52 13.89L8.55 1.59C8.49 1.49 8.42 1.4 8.32 1.34C8.22 1.28 8.11 1.25 8 1.25C7.88 1.25 7.77 1.28 7.67 1.34C7.57 1.4 7.5 1.49 7.44 1.59L1.47 13.89Z" stroke="#FFFFFF" stroke-opacity="1.000000" stroke-width="1.500000" stroke-linejoin="round"/>
</svg>
