<svg width="24.000000" height="24.000000" viewBox="0 0 24 24" fill="none" xmlns="http://www.w3.org/2000/svg" xmlns:xlink="http://www.w3.org/1999/xlink">
	<rect id="Icon" width="24.000000" height="24.000000" fill="#FFFFFF" fill-opacity="0"/>
	<path id="outline" d="M19 16.36C19 19.18 16.18 22 12 22C7.81 22 5 19.18 5 16.36C5 13.44 6.9 9.8 9.13 6.63C10.14 5.2 11.15 3.95 11.95 3.03C12.75 4.02 13.8 5.37 14.84 6.9C15.93 8.49 16.99 10.23 17.77 11.93C18.57 13.66 19 15.18 19 16.36ZM3 16.36C3 10.92 8.13 4.37 10.64 1.48C11.46 0.54 12 0 12 0C12 0 12.51 0.57 13.3 1.52C15.79 4.56 21 11.48 21 16.36C21 20.58 16.97 24 12 24C7.02 24 3 20.58 3 16.36ZM7.49 13L9.64 13C9.24 13.92 9 14.8 9 15.54C9 16.69 10.11 18 12 18L12 20C9.23 20 7 18 7 15.54C7 14.72 7.19 13.85 7.49 13Z" fill="#FFFFFF" fill-opacity="1.000000" fill-rule="evenodd"/>
</svg>
