<svg width="24.000000" height="24.000000" viewBox="0 0 24 24" fill="none" xmlns="http://www.w3.org/2000/svg" xmlns:xlink="http://www.w3.org/1999/xlink">
	<desc>
			Created with Pixso.
	</desc>
	<defs/>
	<rect id="icon" width="24.000000" height="24.000000" fill="#FFFFFF" fill-opacity="0"/>
	<rect id="фрейм 20" width="18.000000" height="24.000000" transform="translate(3.000000 0.000000)" fill="#FFFFFF" fill-opacity="0"/>
	<rect id="фрейм 19" width="8.999944" height="10.285713" transform="translate(7.500000 12.571411)" fill="#FFFFFF" fill-opacity="0"/>
	<line id="line" x1="14.410278" y1="12.571411" x2="14.410278" y2="16.979736" stroke="#FFFFFF" stroke-opacity="1.000000" stroke-width="1.000000"/>
	<line id="line" x1="12.321411" y1="15.877319" x2="16.499756" y2="13.673462" stroke="#FFFFFF" stroke-opacity="1.000000" stroke-width="1.000000"/>
	<line id="line" x1="16.500122" y1="15.877319" x2="12.321777" y2="13.673462" stroke="#FFFFFF" stroke-opacity="1.000000" stroke-width="1.000000"/>
	<line id="line" x1="9.589844" y1="18.448853" x2="9.589844" y2="22.857178" stroke="#FFFFFF" stroke-opacity="1.000000" stroke-width="1.000000"/>
	<line id="line" x1="7.500000" y1="21.755127" x2="11.678345" y2="19.551270" stroke="#FFFFFF" stroke-opacity="1.000000" stroke-width="1.000000"/>
	<line id="line" x1="11.678711" y1="21.755127" x2="7.500366" y2="19.551270" stroke="#FFFFFF" stroke-opacity="1.000000" stroke-width="1.000000"/>
	<mask id="mask_159_114" fill="white">
		<path id="Убрать верхний слой" d="M6.59985 17.4364C4.72156 16.3748 3.37012 14.4131 3.06519 12.0991C3.01721 11.7349 3.31323 11.4282 3.68054 11.4282C4.02429 11.4282 4.3042 11.6985 4.3551 12.0385C4.62781 13.8583 5.68286 15.3794 7.1239 16.2345C7.34863 16.3678 7.49915 16.6031 7.49915 16.8645C7.49915 17.3446 7.01782 17.6726 6.59985 17.4364ZM19.7693 16.9038C20.5309 16.0802 21 14.955 21 13.7145C21 12.9988 20.8439 12.3215 20.5656 11.7184C20.4814 11.5364 20.2946 11.4282 20.094 11.4282C19.6152 11.4282 19.3241 12.0415 19.4934 12.4893C19.6355 12.8649 19.7142 13.2776 19.7142 13.7145C19.7142 14.5491 19.4266 15.2957 18.9598 15.8636C18.8323 16.0188 18.7491 16.2086 18.7491 16.4095C18.7491 16.9924 19.3735 17.3318 19.7693 16.9038Z" clip-rule="evenodd" fill="" fill-opacity="1.000000" fill-rule="evenodd"/>
	</mask>
	<path id="Убрать верхний слой" d="M3.06519 12.0991C3.37012 14.4131 4.72156 16.3748 6.59985 17.4364C7.01782 17.6726 7.49915 17.3446 7.49915 16.8645C7.49915 16.6031 7.34863 16.3678 7.1239 16.2345C5.68286 15.3794 4.62781 13.8583 4.3551 12.0385C4.3042 11.6985 4.02429 11.4282 3.68054 11.4282C3.31323 11.4282 3.01721 11.7349 3.06519 12.0991ZM21 13.7145C21 14.955 20.5309 16.0802 19.7693 16.9038C19.3735 17.3318 18.7491 16.9924 18.7491 16.4095C18.7491 16.2086 18.8323 16.0188 18.9598 15.8636C19.4266 15.2957 19.7142 14.5491 19.7142 13.7145C19.7142 13.2776 19.6355 12.8649 19.4934 12.4893C19.3241 12.0415 19.6152 11.4282 20.094 11.4282C20.2946 11.4282 20.4814 11.5364 20.5656 11.7184C20.8439 12.3215 21 12.9988 21 13.7145Z" clip-rule="evenodd" fill="#FFFFFF" fill-opacity="1.000000" fill-rule="evenodd"/>
	<mask id="mask_159_118" fill="white">
		<path id="Убрать верхний слой" d="M20.8636 12.5715C20.6062 11.5182 20.0013 10.6117 19.1854 9.99585C20.2682 9.38196 21.0004 8.20654 21.0004 6.85742C21.0004 4.87366 19.4174 3.2655 17.4646 3.2655C17.4194 3.2655 17.3744 3.26636 17.3296 3.26807C16.6152 1.35791 14.7964 0.000244141 12.6655 0.000244141C10.1818 0.000244141 8.12207 1.84448 7.74097 4.25854C4.99133 5.18469 3.00049 7.89856 3.00049 11.1023C3.00049 11.6058 3.04968 12.0973 3.14331 12.5715L4.45959 12.5715C4.34644 12.1033 4.28625 11.6112 4.28625 11.1023C4.28625 7.81116 6.80737 5.22473 9.82007 5.22473C12.3757 5.22473 14.5778 7.08594 15.187 9.65979L15.1888 9.65894C15.2749 10.0161 15.3298 10.3864 15.3502 10.7662C15.7507 10.5623 16.1964 10.4492 16.6606 10.4492C17.9436 10.4492 19.085 11.313 19.5237 12.5715L20.8636 12.5715ZM9.12805 3.9552C9.35559 3.93103 9.58643 3.91858 9.82007 3.91858C12.9447 3.91858 15.5786 6.13232 16.3854 9.1521C16.45 9.14795 16.5149 9.14514 16.5802 9.14392Q16.5404 9.14319 16.5004 9.14319L16.4789 9.14319L16.4788 9.14307L17.5034 9.14307L17.5034 9.14282C18.7281 9.12183 19.7146 8.10657 19.7146 6.85742C19.7146 5.59497 18.7073 4.57166 17.4646 4.57166C17.0475 4.57166 16.6567 4.68701 16.3218 4.88806C16.3208 4.52319 16.2662 4.17114 16.1656 3.83948C15.6648 2.36523 14.2869 1.3064 12.6655 1.3064C11.002 1.3064 9.59473 2.42102 9.12805 3.9552Z" clip-rule="evenodd" fill="" fill-opacity="1.000000" fill-rule="evenodd"/>
	</mask>
	<path id="Убрать верхний слой" d="M19.9323 10.7109C20.1494 10.9731 20.3386 11.2617 20.495 11.5715C20.6532 11.885 20.7777 12.2201 20.8636 12.5715L19.5237 12.5715C19.085 11.313 17.9436 10.4492 16.6606 10.4492C16.5497 10.4492 16.4399 10.4557 16.3315 10.4683C15.9861 10.5084 15.6551 10.611 15.3502 10.7662C15.3486 10.7364 15.3468 10.7067 15.3448 10.677C15.3228 10.3545 15.2759 10.0392 15.2063 9.73327C15.2006 9.70856 15.1949 9.68392 15.1889 9.65933L15.1888 9.65894L15.187 9.65979L15.1869 9.6594C15.1087 9.32907 15.0043 9.01048 14.8762 8.70607C14.0065 6.63868 12.0476 5.22473 9.82007 5.22473C6.80737 5.22473 4.28625 7.81116 4.28625 11.1023C4.28625 11.2604 4.29206 11.4169 4.30347 11.5715C4.32876 11.9147 4.38159 12.2488 4.45959 12.5715L3.14331 12.5715C3.04968 12.0973 3.00049 11.6058 3.00049 11.1023C3.00049 7.89856 4.99133 5.18469 7.74097 4.25854C8.12207 1.84448 10.1818 0.000244141 12.6655 0.000244141C14.7964 0.000244141 16.6152 1.35791 17.3296 3.26807C17.3744 3.26636 17.4194 3.2655 17.4646 3.2655C19.4174 3.2655 21.0004 4.87366 21.0004 6.85742C21.0004 7.83245 20.6179 8.71675 19.9971 9.36392C19.7589 9.61223 19.4857 9.82563 19.1854 9.99585C19.46 10.2031 19.7107 10.4433 19.9323 10.7109ZM17.5034 9.14307L17.5034 9.14282C18.7281 9.12183 19.7146 8.10657 19.7146 6.85742C19.7146 5.59497 18.7073 4.57166 17.4646 4.57166C17.413 4.57166 17.3617 4.57342 17.3109 4.5769C16.9516 4.60153 16.6153 4.7119 16.3218 4.88806C16.3208 4.52459 16.2667 4.17385 16.1668 3.8433C16.1664 3.84203 16.166 3.84075 16.1656 3.83948C15.6648 2.36523 14.2869 1.3064 12.6655 1.3064C11.4062 1.3064 10.2938 1.94513 9.62506 2.92108C9.41039 3.23436 9.24145 3.58239 9.12805 3.9552C9.35559 3.93103 9.58643 3.91858 9.82007 3.91858C9.94833 3.91858 10.0758 3.92231 10.2023 3.92967C12.8029 4.08102 15.0151 5.76739 16.036 8.14307C16.1753 8.46729 16.2925 8.80435 16.3854 9.1521C16.4164 9.1501 16.4475 9.14842 16.4788 9.14707C16.5125 9.14562 16.5463 9.14456 16.5802 9.14392Q16.5404 9.14319 16.5004 9.14319L16.4789 9.14319L16.4788 9.14307L17.5034 9.14307Z" clip-rule="evenodd" fill="#FFFFFF" fill-opacity="1.000000" fill-rule="evenodd"/>
</svg>
