<svg width="24.000000" height="24.000000" viewBox="0 0 24 24" fill="none" xmlns="http://www.w3.org/2000/svg" xmlns:xlink="http://www.w3.org/1999/xlink">
	<desc>
			Created with Pixso.
	</desc>
	<defs>
		<clipPath id="clip81_1420">
			<rect id="9044913_pressure_icon" width="24.000000" height="24.000000" fill="white" fill-opacity="0"/>
		</clipPath>
	</defs>
	<rect id="icon" width="24.000000" height="24.000000" fill="#FFFFFF" fill-opacity="0"/>
	<g clip-path="url(#clip81_1420)">
		<path id="path" d="M13.12 12L19.24 6.56C19.5 6.33 19.57 6.05 19.45 5.73C19.32 5.41 19.09 5.25 18.75 5.25L16.5 5.25L16.5 1.5L15 1.5L15 6.75L16.77 6.75L12 10.99L7.22 6.75L9 6.75L9 1.5L7.5 1.5L7.5 5.25L5.25 5.25C4.9 5.25 4.67 5.41 4.54 5.73C4.42 6.05 4.49 6.33 4.75 6.56L10.87 12L4.75 17.43C4.49 17.66 4.42 17.94 4.54 18.26C4.67 18.58 4.9 18.75 5.25 18.75L7.5 18.75L7.5 22.5L9 22.5L9 17.25L7.22 17.25L12 13L16.77 17.25L15 17.25L15 22.5L16.5 22.5L16.5 18.75L18.75 18.75C19.09 18.74 19.32 18.58 19.45 18.26C19.57 17.94 19.5 17.66 19.24 17.43L13.12 12Z" fill="#FFFFFF" fill-opacity="1.000000" fill-rule="nonzero"/>
	</g>
</svg>
