<svg width="24.000000" height="24.000000" viewBox="0 0 24 24" fill="none" xmlns="http://www.w3.org/2000/svg" xmlns:xlink="http://www.w3.org/1999/xlink">
	<defs>
		<clipPath id="clip97_445">
			<rect id="9035096_search_icon" width="24.000000" height="24.000000" fill="white" fill-opacity="0"/>
		</clipPath>
	</defs>
	<g clip-path="url(#clip97_445)">
		<path id="path" d="M21.4 19.75L16.99 15.34C17.52 14.63 17.93 13.86 18.21 13.02C18.49 12.18 18.63 11.32 18.62 10.43C18.62 5.92 14.95 2.25 10.43 2.25C5.92 2.25 2.25 5.92 2.25 10.43C2.25 14.95 5.92 18.62 10.43 18.62C11.32 18.63 12.18 18.49 13.02 18.21C13.86 17.93 14.63 17.52 15.34 16.99L19.75 21.4C19.8 21.45 19.86 21.5 19.93 21.53C19.99 21.57 20.06 21.6 20.13 21.63C20.2 21.65 20.27 21.67 20.34 21.69C20.41 21.7 20.49 21.7 20.56 21.7C20.64 21.7 20.71 21.69 20.78 21.67C20.85 21.66 20.92 21.63 20.99 21.6C21.06 21.58 21.13 21.54 21.19 21.5C21.25 21.46 21.3 21.41 21.36 21.36C21.41 21.3 21.46 21.25 21.5 21.19C21.54 21.13 21.58 21.06 21.6 20.99C21.63 20.92 21.66 20.85 21.67 20.78C21.69 20.71 21.7 20.64 21.7 20.56C21.7 20.49 21.7 20.41 21.69 20.34C21.67 20.27 21.65 20.2 21.63 20.13C21.6 20.06 21.57 19.99 21.53 19.93C21.5 19.86 21.45 19.8 21.4 19.75ZM4.59 10.43C4.59 10.24 4.59 10.05 4.61 9.86C4.63 9.67 4.66 9.48 4.7 9.29C4.73 9.11 4.78 8.92 4.84 8.74C4.89 8.55 4.96 8.37 5.03 8.2C5.1 8.02 5.19 7.85 5.28 7.68C5.37 7.51 5.46 7.34 5.57 7.18C5.68 7.03 5.79 6.87 5.91 6.72C6.03 6.58 6.16 6.43 6.3 6.3C6.43 6.16 6.58 6.03 6.72 5.91C6.87 5.79 7.03 5.68 7.18 5.57C7.34 5.46 7.51 5.37 7.68 5.28C7.85 5.19 8.02 5.1 8.2 5.03C8.37 4.96 8.55 4.89 8.74 4.84C8.92 4.78 9.11 4.73 9.29 4.7C9.48 4.66 9.67 4.63 9.86 4.61C10.05 4.59 10.24 4.59 10.43 4.59C10.63 4.59 10.82 4.59 11.01 4.61C11.2 4.63 11.39 4.66 11.58 4.7C11.76 4.73 11.95 4.78 12.13 4.84C12.32 4.89 12.5 4.96 12.67 5.03C12.85 5.1 13.02 5.19 13.19 5.28C13.36 5.37 13.53 5.46 13.69 5.57C13.84 5.68 14 5.79 14.15 5.91C14.29 6.03 14.44 6.16 14.57 6.3C14.71 6.43 14.84 6.58 14.96 6.72C15.08 6.87 15.19 7.03 15.3 7.18C15.41 7.34 15.5 7.51 15.59 7.68C15.68 7.85 15.77 8.02 15.84 8.2C15.91 8.37 15.98 8.55 16.03 8.74C16.09 8.92 16.14 9.11 16.17 9.29C16.21 9.48 16.24 9.67 16.26 9.86C16.28 10.05 16.29 10.24 16.29 10.43C16.29 10.63 16.28 10.82 16.26 11.01C16.24 11.2 16.21 11.39 16.17 11.58C16.14 11.76 16.09 11.95 16.03 12.13C15.98 12.32 15.91 12.5 15.84 12.67C15.77 12.85 15.68 13.02 15.59 13.19C15.5 13.36 15.41 13.53 15.3 13.69C15.19 13.84 15.08 14 14.96 14.15C14.84 14.29 14.71 14.44 14.57 14.57C14.44 14.71 14.29 14.84 14.15 14.96C14 15.08 13.84 15.19 13.69 15.3C13.53 15.41 13.36 15.5 13.19 15.59C13.02 15.68 12.85 15.77 12.67 15.84C12.5 15.91 12.32 15.98 12.13 16.03C11.95 16.09 11.76 16.14 11.58 16.17C11.39 16.21 11.2 16.24 11.01 16.26C10.82 16.28 10.63 16.29 10.43 16.29C10.24 16.28 10.05 16.28 9.86 16.26C9.67 16.24 9.48 16.21 9.29 16.17C9.11 16.13 8.92 16.09 8.74 16.03C8.55 15.98 8.37 15.91 8.2 15.84C8.02 15.76 7.85 15.68 7.68 15.59C7.51 15.5 7.35 15.4 7.19 15.3C7.03 15.19 6.87 15.08 6.73 14.96C6.58 14.83 6.44 14.71 6.3 14.57C6.17 14.43 6.04 14.29 5.91 14.14C5.79 14 5.68 13.84 5.57 13.68C5.47 13.52 5.37 13.36 5.28 13.19C5.19 13.02 5.11 12.85 5.03 12.67C4.96 12.5 4.89 12.32 4.84 12.13C4.78 11.95 4.74 11.76 4.7 11.58C4.66 11.39 4.63 11.2 4.61 11.01C4.59 10.82 4.59 10.63 4.59 10.43Z" fill="#000000" fill-opacity="0.700000" fill-rule="nonzero"/>
	</g>
</svg>
