<svg width="24.000000" height="24.000000" viewBox="0 0 24 24" fill="none" xmlns="http://www.w3.org/2000/svg" xmlns:xlink="http://www.w3.org/1999/xlink">
	<desc>
			Created with Pixso.
	</desc>
	<defs/>
	<rect id="Icon" width="24.000000" height="24.000000" fill="#FFFFFF" fill-opacity="0"/>
	<path id="Vector" d="M12.98 15.28L12.98 10.5C12.98 10.23 12.87 9.98 12.69 9.79C12.5 9.6 12.25 9.5 11.98 9.5C11.72 9.5 11.46 9.6 11.28 9.79C11.09 9.98 10.98 10.23 10.98 10.5L10.98 15.28C10.68 15.45 10.43 15.7 10.26 16C10.08 16.3 9.99 16.65 9.99 16.99C9.99 17.53 10.2 18.03 10.57 18.41C10.95 18.78 11.45 18.99 11.98 18.99C12.51 18.99 13.02 18.78 13.39 18.41C13.77 18.03 13.98 17.53 13.98 16.99C13.97 16.65 13.88 16.3 13.71 16C13.53 15.7 13.28 15.45 12.98 15.28ZM16.47 12.99L16.47 5.5C16.47 4.3 16 3.16 15.16 2.31C14.31 1.47 13.17 1 11.98 1C10.79 1 9.65 1.47 8.81 2.31C7.97 3.16 7.49 4.3 7.49 5.5L7.49 12.99C6.8 13.78 6.33 14.73 6.12 15.75C5.91 16.77 5.97 17.83 6.29 18.83C6.61 19.82 7.19 20.71 7.96 21.41C8.74 22.11 9.68 22.6 10.69 22.83C11.12 22.92 11.55 22.98 11.98 22.99C13.14 23 14.27 22.67 15.25 22.04C16.22 21.41 16.99 20.52 17.47 19.46C17.94 18.4 18.1 17.23 17.92 16.08C17.75 14.93 17.24 13.86 16.47 12.99ZM14.48 20.06C13.68 20.77 12.64 21.13 11.58 21.07C10.52 21 9.53 20.52 8.83 19.72C8.13 18.93 7.77 17.89 7.83 16.82C7.89 15.76 8.37 14.77 9.17 14.06C9.26 13.97 9.34 13.86 9.39 13.74C9.44 13.62 9.47 13.49 9.47 13.36L9.47 5.5C9.47 4.83 9.73 4.2 10.2 3.73C10.67 3.26 11.3 3 11.96 3C12.62 3 13.26 3.26 13.73 3.73C14.19 4.2 14.46 4.83 14.46 5.5L14.46 13.43C14.46 13.57 14.48 13.7 14.53 13.82C14.59 13.94 14.66 14.05 14.76 14.15C15.16 14.54 15.48 15.02 15.69 15.55C15.9 16.07 15.99 16.64 15.97 17.21C15.94 17.78 15.8 18.33 15.54 18.84C15.28 19.34 14.92 19.79 14.48 20.15L14.48 20.06Z" fill="#FFFFFF" fill-opacity="1.000000" fill-rule="nonzero"/>
</svg>
