<svg width="24.000000" height="24.000000" viewBox="0 0 24 24" fill="none" xmlns="http://www.w3.org/2000/svg" xmlns:xlink="http://www.w3.org/1999/xlink">
	<desc>
			Created with Pixso.
	</desc>
	<defs>
		<clipPath id="clip81_1535">
			<rect id="8201354_view_eye_visible_ui_icon" width="24.000000" height="18.000000" transform="translate(0.000000 3.000000)" fill="white" fill-opacity="0"/>
		</clipPath>
	</defs>
	<rect id="icon" width="24.000000" height="24.000000" fill="#FFFFFF" fill-opacity="0"/>
	<g clip-path="url(#clip81_1535)">
		<g style="mix-blend-mode:normal">
			<path id="path2208" d="M12 4.12C8.92 4.12 6.26 5.71 4.35 7.39C3.4 8.22 2.64 9.08 2.09 9.84C1.81 10.21 1.59 10.56 1.42 10.89C0.95 11.71 1 12.37 1.42 13.12C1.59 13.45 1.81 13.8 2.09 14.18C2.64 14.94 3.4 15.81 4.36 16.64C6.26 18.3 8.92 19.87 12 19.87C15.08 19.87 17.74 18.3 19.65 16.64C20.6 15.81 21.36 14.94 21.91 14.18C22.19 13.8 22.41 13.45 22.58 13.12C23.05 12.29 22.98 11.6 22.58 10.89C22.41 10.56 22.19 10.21 21.91 9.84C21.37 9.08 20.6 8.22 19.65 7.39C17.75 5.71 15.08 4.12 12 4.12ZM12 6.37C14.33 6.37 16.58 7.65 18.23 9.1C19.05 9.82 19.72 10.58 20.17 11.19C20.39 11.49 20.55 11.76 20.55 12.01C20.55 12.26 20.39 12.53 20.16 12.84C19.72 13.44 19.05 14.2 18.23 14.92C16.58 16.36 14.34 17.62 12 17.62C9.66 17.62 7.42 16.36 5.77 14.92C4.95 14.2 4.28 13.44 3.84 12.84C3.62 12.53 3.45 12.26 3.45 12.01C3.45 11.76 3.61 11.49 3.83 11.19C4.28 10.58 4.95 9.82 5.77 9.1C7.42 7.65 9.67 6.37 12 6.37Z" fill="#FFFFFF" fill-opacity="1.000000" fill-rule="nonzero"/>
			<path id="path2208" d="M4.35 7.39C3.4 8.22 2.64 9.08 2.09 9.84C1.81 10.21 1.59 10.56 1.42 10.89C0.95 11.71 1 12.37 1.42 13.12C1.59 13.45 1.81 13.8 2.09 14.18C2.64 14.94 3.4 15.81 4.36 16.64C6.26 18.3 8.92 19.87 12 19.87C15.08 19.87 17.74 18.3 19.65 16.64C20.6 15.81 21.36 14.94 21.91 14.18C22.19 13.8 22.41 13.45 22.58 13.12C23.05 12.29 22.98 11.6 22.58 10.89C22.41 10.56 22.19 10.21 21.91 9.84C21.37 9.08 20.6 8.22 19.65 7.39C17.75 5.71 15.08 4.12 12 4.12C8.92 4.12 6.26 5.71 4.35 7.39ZM18.23 9.1C19.05 9.82 19.72 10.58 20.17 11.19C20.39 11.49 20.55 11.76 20.55 12.01C20.55 12.26 20.39 12.53 20.16 12.84C19.72 13.44 19.05 14.2 18.23 14.92C16.58 16.36 14.34 17.62 12 17.62C9.66 17.62 7.42 16.36 5.77 14.92C4.95 14.2 4.28 13.44 3.84 12.84C3.62 12.53 3.45 12.26 3.45 12.01C3.45 11.76 3.61 11.49 3.83 11.19C4.28 10.58 4.95 9.82 5.77 9.1C7.42 7.65 9.67 6.37 12 6.37C14.33 6.37 16.58 7.65 18.23 9.1Z" stroke="#000000" stroke-opacity="0" stroke-width="1.000000" stroke-linejoin="round"/>
		</g>
		<g style="mix-blend-mode:normal">
			<path id="path2211" d="M12.03 8.59C10.23 8.59 8.75 10.12 8.75 11.97C8.75 13.82 10.23 15.34 12.03 15.34C13.83 15.34 15.31 13.82 15.31 11.97C15.31 10.12 13.83 8.59 12.03 8.59ZM12.03 10.84C12.64 10.84 13.12 11.33 13.12 11.97C13.12 12.6 12.64 13.09 12.03 13.09C11.41 13.09 10.94 12.6 10.94 11.97C10.94 11.33 11.41 10.84 12.03 10.84Z" fill="#FFFFFF" fill-opacity="1.000000" fill-rule="nonzero"/>
			<path id="path2211" d="M8.75 11.97C8.75 13.82 10.23 15.34 12.03 15.34C13.83 15.34 15.31 13.82 15.31 11.97C15.31 10.12 13.83 8.59 12.03 8.59C10.23 8.59 8.75 10.12 8.75 11.97ZM13.12 11.97C13.12 12.6 12.64 13.09 12.03 13.09C11.41 13.09 10.94 12.6 10.94 11.97C10.94 11.33 11.41 10.84 12.03 10.84C12.64 10.84 13.12 11.33 13.12 11.97Z" stroke="#000000" stroke-opacity="0" stroke-width="1.000000" stroke-linejoin="round"/>
		</g>
	</g>
</svg>
