<svg width="24.000000" height="24.000000" viewBox="0 0 24 24" fill="none" xmlns="http://www.w3.org/2000/svg" xmlns:xlink="http://www.w3.org/1999/xlink">
	<desc>
			Created with Pixso.
	</desc>
	<defs/>
	<rect id="icon" width="24.000000" height="24.000000" fill="#FFFFFF" fill-opacity="0"/>
	<path id="outline" d="M10 6.2L10 6.19L4.33 6.19L9.76 4.13L9.76 4.13C9.87 4.1 9.98 4.09 10.08 4.1C10.1 4.1 10.11 4.1 10.12 4.1L10.13 4.1C10.27 4.12 10.41 4.17 10.54 4.26L10.54 4.26C10.66 4.34 10.77 4.45 10.85 4.58L10.85 4.58C10.93 4.71 10.98 4.86 11 5.01L11 5.02C11.02 5.17 11 5.33 10.96 5.48L10.96 5.48C10.91 5.62 10.83 5.76 10.73 5.87L10.73 5.87C10.63 5.99 10.51 6.07 10.37 6.13L10.37 6.13C10.35 6.13 10.34 6.14 10.33 6.14C10.22 6.18 10.11 6.2 10 6.2ZM0 5.61L0 8.3L9.97 8.3C10.35 8.3 10.73 8.23 11.09 8.09L11.09 8.09C11.36 7.98 11.61 7.83 11.84 7.64C11.96 7.54 12.07 7.44 12.18 7.32L12.18 7.32C12.48 6.98 12.71 6.57 12.85 6.13L12.85 6.13C12.99 5.69 13.03 5.22 12.98 4.75L12.98 4.75C12.92 4.29 12.77 3.84 12.53 3.45L12.53 3.45C12.29 3.06 11.97 2.72 11.6 2.48L11.6 2.48C11.47 2.39 11.33 2.31 11.19 2.25C10.93 2.13 10.65 2.05 10.36 2.02L10.36 2.02C9.93 1.96 9.5 2.01 9.09 2.15L9.08 2.15L9.05 2.16L9.05 2.16L9.05 2.16L9.05 2.16L0 5.61ZM0 14.62L0 16.79L13.2 21.73L13.2 21.73C13.68 21.93 14.19 22.02 14.71 21.99C14.9 21.98 15.1 21.95 15.29 21.9C15.6 21.82 15.89 21.71 16.17 21.55C16.62 21.29 17.02 20.92 17.32 20.49C17.62 20.05 17.83 19.55 17.93 19.02C18.03 18.48 18.02 17.94 17.89 17.41C17.76 16.89 17.53 16.4 17.2 15.98C17 15.72 16.77 15.49 16.51 15.3C16.35 15.18 16.18 15.08 16 14.99C15.54 14.75 15.03 14.63 14.52 14.63L14.52 14.62L0 14.62ZM14.51 16.73L5.81 16.73L13.98 19.79L13.98 19.79C14.17 19.87 14.38 19.9 14.59 19.89C14.81 19.87 15.02 19.81 15.21 19.7C15.41 19.59 15.58 19.43 15.71 19.24C15.84 19.06 15.93 18.84 15.97 18.61C16.01 18.39 16 18.15 15.95 17.93C15.9 17.7 15.8 17.49 15.66 17.31C15.52 17.13 15.34 16.99 15.14 16.89C14.94 16.79 14.73 16.74 14.51 16.73L14.51 16.73L14.51 16.73L14.51 16.73ZM19.01 6.47L19.01 6.47L18.03 4.63L18.03 4.63L18.03 4.63C18.56 4.31 19.16 4.13 19.77 4.09C19.86 4.09 19.94 4.09 20.03 4.09C20.55 4.09 21.07 4.21 21.55 4.42C22.12 4.67 22.62 5.05 23.02 5.54C23.42 6.03 23.71 6.61 23.86 7.23C24.02 7.85 24.04 8.51 23.91 9.14C23.79 9.77 23.53 10.36 23.16 10.87C22.84 11.31 22.44 11.68 21.99 11.95C21.91 12 21.84 12.04 21.76 12.08C21.21 12.36 20.6 12.51 19.99 12.51L19.99 12.51L0 12.51L0 10.41L19.99 10.41L19.99 10.4C20.3 10.4 20.6 10.33 20.87 10.19C21.15 10.05 21.39 9.84 21.58 9.59C21.76 9.33 21.89 9.03 21.95 8.72C22.01 8.4 22.01 8.08 21.93 7.77C21.85 7.45 21.71 7.17 21.51 6.92C21.31 6.68 21.05 6.49 20.77 6.36C20.49 6.24 20.19 6.18 19.88 6.2C19.58 6.22 19.28 6.31 19.01 6.47Z" fill="#FFFFFF" fill-opacity="1.000000" fill-rule="evenodd"/>
</svg>
