<svg width="32.000000" height="32.000000" viewBox="0 0 32 32" fill="none" xmlns="http://www.w3.org/2000/svg" xmlns:xlink="http://www.w3.org/1999/xlink">
	<defs>
		<clipPath id="clip240_817">
			<rect id="instagram svg" width="32.000000" height="32.000000" fill="white" fill-opacity="0"/>
		</clipPath>
	</defs>
	<g clip-path="url(#clip240_817)">
		<path id="path" d="M20.75 5.75C21.11 5.75 21.46 5.78 21.82 5.85C22.17 5.92 22.52 6.03 22.85 6.16C23.18 6.3 23.5 6.47 23.8 6.67C24.1 6.87 24.38 7.1 24.63 7.36C24.89 7.61 25.12 7.89 25.32 8.19C25.52 8.49 25.69 8.81 25.83 9.14C25.96 9.47 26.07 9.82 26.14 10.17C26.21 10.53 26.25 10.88 26.25 11.25L26.25 20.75C26.25 21.11 26.21 21.46 26.14 21.82C26.07 22.17 25.96 22.52 25.83 22.85C25.69 23.18 25.52 23.5 25.32 23.8C25.12 24.1 24.89 24.38 24.63 24.63C24.38 24.89 24.1 25.12 23.8 25.32C23.5 25.52 23.18 25.69 22.85 25.83C22.52 25.96 22.17 26.07 21.82 26.14C21.46 26.21 21.11 26.25 20.75 26.25L11.25 26.25C10.88 26.25 10.53 26.21 10.17 26.14C9.82 26.07 9.47 25.96 9.14 25.83C8.81 25.69 8.49 25.52 8.19 25.32C7.89 25.12 7.61 24.89 7.36 24.63C7.1 24.38 6.87 24.1 6.67 23.8C6.47 23.5 6.3 23.18 6.16 22.85C6.03 22.52 5.92 22.17 5.85 21.82C5.78 21.46 5.75 21.11 5.75 20.75L5.75 11.25C5.75 10.88 5.78 10.53 5.85 10.17C5.92 9.82 6.03 9.47 6.16 9.14C6.3 8.81 6.47 8.49 6.67 8.19C6.87 7.89 7.1 7.61 7.36 7.36C7.61 7.1 7.89 6.87 8.19 6.67C8.49 6.47 8.81 6.3 9.14 6.16C9.47 6.03 9.82 5.92 10.17 5.85C10.53 5.78 10.88 5.75 11.25 5.75L20.75 5.75ZM20.75 3.75L11.25 3.75C10.75 3.75 10.27 3.8 9.78 3.89C9.3 3.99 8.83 4.13 8.38 4.32C7.92 4.51 7.49 4.74 7.08 5.02C6.67 5.29 6.3 5.6 5.95 5.95C5.6 6.3 5.29 6.67 5.02 7.08C4.74 7.49 4.51 7.92 4.32 8.38C4.13 8.83 3.99 9.3 3.89 9.78C3.8 10.27 3.75 10.75 3.75 11.25L3.75 20.75C3.75 21.24 3.8 21.72 3.89 22.21C3.99 22.69 4.13 23.16 4.32 23.61C4.51 24.07 4.74 24.5 5.02 24.91C5.29 25.32 5.6 25.69 5.95 26.04C6.3 26.39 6.67 26.7 7.08 26.97C7.49 27.25 7.92 27.48 8.38 27.67C8.83 27.86 9.3 28 9.78 28.1C10.27 28.19 10.75 28.24 11.25 28.25L20.75 28.25C21.24 28.24 21.72 28.19 22.21 28.1C22.69 28 23.16 27.86 23.61 27.67C24.07 27.48 24.5 27.25 24.91 26.97C25.32 26.7 25.69 26.39 26.04 26.04C26.39 25.69 26.7 25.32 26.97 24.91C27.25 24.5 27.48 24.07 27.67 23.61C27.86 23.16 28 22.69 28.1 22.21C28.19 21.72 28.24 21.24 28.25 20.75L28.25 11.25C28.24 10.75 28.19 10.27 28.1 9.78C28 9.3 27.86 8.83 27.67 8.38C27.48 7.92 27.25 7.49 26.97 7.08C26.7 6.67 26.39 6.3 26.04 5.95C25.69 5.6 25.32 5.29 24.91 5.02C24.5 4.74 24.07 4.51 23.61 4.32C23.16 4.13 22.69 3.99 22.21 3.89C21.72 3.8 21.24 3.75 20.75 3.75Z" fill="#FFFFFF" fill-opacity="1.000000" fill-rule="nonzero"/>
		<path id="path" d="M22.53 8C22.34 8 22.16 8.03 21.98 8.1C21.81 8.18 21.65 8.28 21.52 8.41C21.38 8.55 21.28 8.7 21.21 8.88C21.13 9.05 21.1 9.24 21.1 9.43C21.1 9.62 21.13 9.8 21.21 9.98C21.28 10.15 21.38 10.31 21.52 10.44C21.65 10.57 21.81 10.68 21.98 10.75C22.16 10.82 22.34 10.86 22.53 10.86C22.72 10.86 22.9 10.82 23.08 10.75C23.25 10.68 23.41 10.57 23.54 10.44C23.68 10.31 23.78 10.15 23.85 9.98C23.93 9.8 23.96 9.62 23.96 9.43C23.96 9.24 23.93 9.05 23.85 8.88C23.78 8.7 23.68 8.55 23.54 8.41C23.41 8.28 23.25 8.18 23.08 8.1C22.9 8.03 22.72 8 22.53 8Z" fill="#FFFFFF" fill-opacity="1.000000" fill-rule="nonzero"/>
		<path id="path" d="M16.06 11.61C16.35 11.61 16.64 11.64 16.93 11.7C17.21 11.75 17.49 11.84 17.75 11.95C18.02 12.06 18.28 12.2 18.52 12.36C18.76 12.52 18.98 12.7 19.19 12.91C19.39 13.11 19.58 13.34 19.74 13.58C19.9 13.82 20.04 14.07 20.15 14.34C20.26 14.61 20.34 14.89 20.4 15.17C20.46 15.45 20.49 15.74 20.49 16.03C20.49 16.32 20.46 16.61 20.4 16.89C20.34 17.18 20.26 17.46 20.15 17.72C20.04 17.99 19.9 18.25 19.74 18.49C19.58 18.73 19.4 18.95 19.19 19.16C18.99 19.36 18.76 19.55 18.52 19.71C18.28 19.87 18.03 20 17.76 20.12C17.49 20.23 17.21 20.31 16.93 20.37C16.64 20.42 16.36 20.45 16.07 20.45C15.77 20.45 15.49 20.42 15.2 20.37C14.92 20.31 14.64 20.23 14.37 20.12C14.1 20 13.85 19.87 13.61 19.71C13.37 19.55 13.14 19.36 12.94 19.16C12.73 18.95 12.55 18.73 12.39 18.49C12.23 18.25 12.09 17.99 11.98 17.72C11.87 17.45 11.79 17.18 11.73 16.89C11.67 16.61 11.64 16.32 11.65 16.03C11.65 15.74 11.67 15.45 11.73 15.17C11.79 14.88 11.87 14.61 11.98 14.34C12.09 14.07 12.23 13.82 12.39 13.58C12.55 13.34 12.74 13.11 12.94 12.91C13.15 12.7 13.37 12.52 13.61 12.36C13.85 12.2 14.11 12.06 14.37 11.95C14.64 11.84 14.92 11.76 15.2 11.7C15.49 11.64 15.77 11.61 16.06 11.61ZM16.06 9.61C15.64 9.61 15.22 9.66 14.81 9.74C14.4 9.82 14 9.94 13.61 10.11C13.22 10.27 12.85 10.47 12.5 10.7C12.15 10.94 11.83 11.2 11.53 11.5C11.23 11.8 10.96 12.12 10.73 12.47C10.5 12.83 10.3 13.2 10.14 13.58C9.98 13.97 9.86 14.38 9.78 14.79C9.7 15.2 9.65 15.62 9.66 16.04C9.66 16.46 9.7 16.88 9.78 17.29C9.86 17.71 9.99 18.11 10.15 18.5C10.31 18.89 10.51 19.26 10.74 19.61C10.98 19.96 11.24 20.28 11.54 20.58C11.84 20.88 12.16 21.14 12.51 21.37C12.87 21.61 13.24 21.81 13.62 21.97C14.01 22.13 14.42 22.25 14.83 22.33C15.24 22.41 15.66 22.45 16.08 22.45C16.5 22.45 16.92 22.41 17.33 22.33C17.75 22.25 18.15 22.12 18.54 21.96C18.93 21.8 19.3 21.6 19.65 21.37C20 21.13 20.32 20.87 20.62 20.57C20.92 20.27 21.18 19.95 21.42 19.6C21.65 19.25 21.85 18.88 22.01 18.49C22.17 18.1 22.29 17.7 22.37 17.28C22.45 16.87 22.5 16.45 22.5 16.03C22.5 15.61 22.45 15.19 22.37 14.78C22.29 14.36 22.17 13.96 22 13.57C21.84 13.18 21.64 12.81 21.41 12.46C21.18 12.11 20.91 11.79 20.61 11.49C20.31 11.19 19.99 10.92 19.63 10.69C19.28 10.46 18.91 10.26 18.52 10.1C18.13 9.94 17.73 9.82 17.32 9.73C16.9 9.65 16.48 9.61 16.06 9.61Z" fill="#FFFFFF" fill-opacity="1.000000" fill-rule="nonzero"/>
	</g>
</svg>
