<svg width="32.000000" height="32.000000" viewBox="0 0 32 32" fill="none" xmlns="http://www.w3.org/2000/svg" xmlns:xlink="http://www.w3.org/1999/xlink">
	<defs>
		<clipPath id="clip240_812">
			<rect id="youtube svg" width="32.000000" height="32.000000" fill="white" fill-opacity="0"/>
		</clipPath>
	</defs>
	<g clip-path="url(#clip240_812)">
		<path id="path" d="M16 8.07C16.05 8.07 21.73 8.07 25.47 8.34L25.64 8.35C26.14 8.4 26.68 8.45 27.21 9C27.46 9.25 27.74 10.13 27.84 10.77C28 12.15 28.08 13.55 28.09 14.94L28.09 17C28.08 18.4 28 19.79 27.84 21.18C27.75 21.8 27.45 22.7 27.21 22.93C26.68 23.48 26.13 23.53 25.64 23.58L25.47 23.6C21.79 23.85 16.25 23.87 16 23.87C15.71 23.87 9 23.8 6.85 23.62C6.73 23.6 6.6 23.58 6.46 23.57C5.89 23.5 5.24 23.42 4.78 22.94C4.53 22.69 4.24 21.81 4.15 21.18C3.99 19.79 3.91 18.4 3.9 17L3.9 14.96C3.91 13.56 3.99 12.17 4.15 10.78C4.25 10.14 4.54 9.26 4.78 9.02C5.31 8.47 5.86 8.42 6.35 8.37L6.52 8.35C10.27 8.09 15.94 8.07 16 8.07ZM16 6.46C16 6.46 10.22 6.46 6.37 6.73C5.84 6.8 4.67 6.8 3.62 7.88C2.8 8.71 2.53 10.58 2.53 10.58C2.36 12.03 2.26 13.49 2.25 14.96L2.25 17.02C2.26 18.49 2.35 19.96 2.52 21.42C2.52 21.42 2.79 23.29 3.61 24.11C4.66 25.19 6.03 25.16 6.64 25.28C8.85 25.48 16 25.55 16 25.55C16 25.55 21.77 25.55 25.62 25.27C26.16 25.2 27.33 25.2 28.37 24.12C29.2 23.29 29.47 21.42 29.47 21.42C29.64 19.96 29.73 18.49 29.75 17.02L29.75 14.96C29.73 13.49 29.64 12.03 29.47 10.57C29.47 10.57 29.2 8.69 28.38 7.87C27.33 6.79 26.16 6.78 25.63 6.72C21.77 6.44 16 6.46 16 6.46Z" fill="#FFFFFF" fill-opacity="1.000000" fill-rule="nonzero"/>
		<path id="polygon" d="M13.53 11.9L13.53 20.09L20.52 16L13.53 11.9Z" fill="#FFFFFF" fill-opacity="1.000000" fill-rule="nonzero"/>
	</g>
</svg>
