<svg width="120.004" height="68" viewBox="0 0 120.004 68" fill="none">
<defs>
<linearGradient x1="93.898" y1="5.175" x2="112.204" y2="62.82" id="a" gradientUnits="userSpaceOnUse">
<stop stop-color="#F5BD52"/><stop offset="1" stop-color="#F5DA79"/></linearGradient>
<linearGradient x1="72.668" y1="4.384" x2="72.668" y2="57.262" id="b" gradientUnits="userSpaceOnUse">
<stop stop-color="#4B4FC2"/><stop offset="1" stop-color="#7578CB"/></linearGradient>
<linearGradient x1="29.203" y1="4.382" x2="29.203" y2="57.356" id="c" gradientUnits="userSpaceOnUse">
<stop offset=".015" stop-color="#FF5959"/><stop offset="1" stop-color="#EC9F9F"/></linearGradient>
</defs><path d="M.004 0h120v68h-120z"/>
<path d="m102.29 2.42 8.95 2.44-7 23.82 13.19-4.32-6.91 20.63-6.9 20.64-8.85-2.77 4.02-12.01 4.02-12.01-12.42 4.07z" fill="url(#a)" fill-rule="evenodd"/>
<path d="m64.387 4.384 6.81 34.404L80.7 4.384h10.01l3.617 13.05-5.02 18.17L85.7 23.133l-9.86 34.13H64.195L51.007 4.383z" clip-rule="evenodd" fill="url(#b)" fill-rule="evenodd"/>
<path d="m13.33 4.382 6.786 34.467 9.47-34.467h9.975l9.489 34.43 3.135-16.064 6.22 24.944-2.397 9.664H44.404l-9.837-34.191-9.824 34.192H13.14L0 4.381z" clip-rule="evenodd" fill="url(#c)" fill-rule="evenodd"/>
</svg>